<svg xmlns="http://www.w3.org/2000/svg" width="561.752" height="923.949" viewBox="0 0 561.752 923.949">
  <g id="Сгруппировать_184" data-name="Сгруппировать 184" transform="translate(-1159.235 -258.158)">
    <path id="Контур_303" data-name="Контур 303" d="M236.1,324.377c-1.469-4.459-3.042-8.889-4.408-13.378a120.856,120.856,0,0,1-3.761-13.07,180.177,180.177,0,0,1-3.13-21.1c-.367-5.143.522-10.351.911-15.523.088-1.2.544-2.373.646-3.578.566-6.539.61-13.158,1.749-19.586.786-4.452,2.939-8.706,4.695-12.937,2.939-6.943,5.591-14.091,9.33-20.571,3-5.231,7.244-9.83,11.343-14.333a30.3,30.3,0,0,1,8.206-6.289c4-2.079,6.024-.162,6.612,4.408,1.131,8.72-2.468,15.8-6.612,22.973-3.879,6.759-7.383,13.76-10.645,20.842-1.8,3.916-2.777,8.214-4.085,12.35-1.4,4.408-2.748,8.882-4.114,13.327a6.421,6.421,0,0,0-.309,1.425c-.529,7.28-1.3,14.561-1.469,21.849-.25,10.285-.191,20.571,0,30.856a110.8,110.8,0,0,0,1.4,12.291,3.673,3.673,0,0,0,.933,1.917c3.585,3.725,12.893,1.234,14.466-3.673a84.251,84.251,0,0,0,3.673-28.013c-.316-12.2-1.117-24.391-1.249-36.594-.066-6.061.088-12.342,1.587-18.154,1.976-7.67,5.466-15.024,11.284-20.659,1.624-1.565,5.341-2.6,7.214-1.807s3.475,4.107,3.732,6.472c.566,5.2-.287,10.564.345,15.759.808,6.612,2.527,13.173,3.82,19.762.566,2.858.962,5.752,1.587,8.6,2.072,9.551,4.121,19.05,6.377,28.527a32.92,32.92,0,0,0,2.439,5.877c4.717-6.678,9.455-14.157,14.995-20.989A122.063,122.063,0,0,1,328.4,266.537c3.335-2.895,7.435-4.952,11.321-7.156,3.673-2.064,7.449-3.857,11.218-5.7a30.444,30.444,0,0,1,4.327-1.712q8.816-2.711,17.6-5.3a9.287,9.287,0,0,1,2.513-.455c8.816-.044,17.632-.375,26.448.11,3.556.2,7.038,2.116,10.491,3.424,4.7,1.8,9.257,4.07,14.061,5.5,1.653.492,3.864-.97,5.841-1.469a64.521,64.521,0,0,1,7.648-1.727c2.292-.294,4.658.081,6.972-.088,6.781-.5,12.6,2.358,18.109,5.591a51.913,51.913,0,0,1,11.358,8.889c2.277,2.417,3.431,5.98,4.753,9.176a3.315,3.315,0,0,1-1.2,3c-.764.419-2.314-.228-3.086-.9-3.622-3.166-6.935-6.693-10.631-9.756-8.992-7.427-19.638-8.184-30.635-7.031-1.065.11-2.094,1.1-3.049,1.807-4.481,3.306-8.7.617-12.857-.735a118.529,118.529,0,0,1-13.18-5.047c-8.816-4.019-18.058-1.829-27.08-1.851-3.975,0-7.978,2.2-11.924,3.475s-8.081,2.593-11.946,4.239a74.124,74.124,0,0,0-10.469,5.407c-11.329,7.126-21.305,15.81-28.307,27.352a175.706,175.706,0,0,0-10.109,18.829c-1.94,4.305-2.667,9.154-4.063,13.716-2.939,9.661-4.988,19.505-4.019,29.607.485,5.084,2.116,10.094,3.49,15.068a108.361,108.361,0,0,0,4.408,13.466c2.755,6.538,5.789,12.989,9.1,19.27a86.355,86.355,0,0,0,8.757,13.959,73.635,73.635,0,0,0,12.026,11.791,114.781,114.781,0,0,0,16.42,10.653c8.427,4.481,17.434,7.251,26.83,9.551,12.453,3.012,24.758,1.418,37.108,1.646,4.077.073,8.287-1.322,12.254-2.608a122.112,122.112,0,0,0,17.426-6.612c5.282-2.689,10.08-6.377,14.921-9.852a64.5,64.5,0,0,0,10.013-8.221c3.673-3.967,6.715-8.507,9.918-12.879a48.97,48.97,0,0,0,4.643-7.214c1.469-3.049.654-5.826-.97-8.948-2.41-4.621-4.68-9.69-5.268-14.767-.735-6.193.47-12.585.639-18.9.184-6.546,3.144-12.159,6.127-17.632,4.672-8.551,10.623-16.163,19.1-21.437a28.747,28.747,0,0,1,3.188-1.506l-1.278-1.638c-3.769,1.087-7.472,2.7-11.314,3.137-5.877.683-11.755,1.741-17.794-1.021-5.664-2.6-7.508-7.126-9.551-12.262-4.474-11.373,2.064-18.69,8.816-26.183,4.239-4.724,10.146-6.061,15.523-8.647,5.018-2.417,9.991-1.785,15.031-1.771,1.947,0,3.945.948,5.826,1.7a10.622,10.622,0,0,1,2.417,1.94c-.977.852-1.815,2.057-2.939,2.505-7.5,2.939-15.1,5.62-22.6,8.574-5.054,1.991-11.02,10.836-10.932,15.736.132,6.178,5.65,9.683,11.652,8.478,7.927-1.594,15.839-4.2,24.1-2.939A47.281,47.281,0,0,1,526.74,312.9a7.279,7.279,0,0,1,3.9,5.106c.1,1.3-2.52,3.313-4.32,4.151-6.847,3.188-13.3,6.832-18.367,12.607-.962,1.1-2.2,1.991-3.056,3.152-3.416,4.489-7.31,8.742-9.984,13.65a43.662,43.662,0,0,0-5.62,24c.522,8.081,3.747,14.745,9.11,20.673,4.577,5.069,10.41,7.765,16.765,9.551,3.218.9,6.539,1.411,9.822,2.05,3.769.735,7.626,2.255,11.3,1.91,7.391-.735,14.693-2.314,22.04-3.776a127.282,127.282,0,0,0,15.332-3.769,119.014,119.014,0,0,0,15.685-6.612c7.574-3.82,14.253-8.978,21-14.15,9.014-6.891,15.281-15.832,21.724-24.824,6.876-9.595,10.653-20.5,13.408-31.723,1.109-4.518.566-9.507.36-14.267-.316-7.156-.272-14.443-1.763-21.386-1.168-5.481-4.32-10.557-6.766-15.729-2.674-5.664-5.774-10.976-10.9-14.972-4.335-3.379-8.015-7.618-12.453-10.822a31.811,31.811,0,0,0-10.219-4.562c-6.722-1.815-13.606-3.042-20.409-4.548a8.078,8.078,0,0,1-1.6-.735c.316-.6.485-1.469.97-1.726,1.469-.735,3.042-1.675,4.606-1.726,5.877-.2,11.85-.735,17.6.132,4.408.654,7.244-.044,9.433-3.769,2.7-4.584,3.21-9.1.573-14.039-2.939-5.451-6.539-10.484-12.357-12.379-6.34-2.064-12.379-5.973-19.373-5.209a24.692,24.692,0,0,0-9.124,3.1c-3.108,1.749-2.814,6.1.463,8.544a87.772,87.772,0,0,0,10.337,6.656c3.93,2.167,5.326,4.32,4.217,7.663-.889,2.682-5.143,4.908-8.309,3.717a30.055,30.055,0,0,0-21.944,0c-4.268,1.6-9.058,1.9-13.18,3.769-12.717,5.767-19.035,15.736-16.243,29.137,1.7,8.221,7.207,14.657,15.252,18.19,5.047,2.2,10.175,4.232,15.325,6.186a11.586,11.586,0,0,0,3.989.375c7.1,0,14.2-.059,21.305.088,1.249,0,2.476.984,3.717,1.513a13.588,13.588,0,0,1-1.572,3.343c-.9,1.058-2.138,2.336-3.379,2.527-6.774,1.051-13.613,2.586-20.394,2.41a58.517,58.517,0,0,1-18.712-3.673,45.021,45.021,0,0,1-16.831-11.02c-4.011-4.158-6.509-8.911-8.632-14.047a11.578,11.578,0,0,1-.639-2.843c-.838-6.09-1.286-12.357.2-18.22,1.242-4.908,3.424-10.219,6.84-13.768a59.353,59.353,0,0,1,16.361-11.689c5.032-2.483,11.02-3.2,16.618-4.305,2.63-.522,3.35-.882,2.652-3.93-2.85-12.409-.735-23.722,16.163-24.082,3.379-.066,6.766,0,10.153,0l.367-1.051c-1.469-1.021-2.939-2.108-4.408-3.049-5.877-3.593-11.7-7.2-17.632-10.667-3.85-2.255-7.839-4.268-11.755-6.392l-21.614-11.666q-10.337-5.561-20.666-11.138c-6.612-3.563-13.128-7.251-19.836-10.623-.9-.456-3.027.191-3.784,1.036a70.233,70.233,0,0,0-7.023,9.191c-3.717,5.929-7.134,12.056-10.675,18.1-1.286,2.2-2.505,4.445-3.857,6.612-3.908,6.259-9.734,10.675-16.1,13.7a23.032,23.032,0,0,1-16.03,1.411c-10.462-2.792-16.625-10.175-22.216-18.433-1.91-2.828-4.974-3.673-8.6-2.028-4.695,2.16-9.36,1.741-12.746-1.822-3.056-3.21-2.02-7.347-1.212-11.16.492-2.314,1.807-4.445,2.7-6.678.162-.411.264-1.19.059-1.344a2.028,2.028,0,0,0-1.557-.309,94.8,94.8,0,0,0-10.6,3.409c-7.56,3.306-12.085,1.763-15.663-5.672-1.2-2.5-2.513-4.952-3.886-7.347-2.1-3.673-8.221-4.687-12.629-3-6.854,2.63-13.812,2.322-20.894,0-6.663-2.167-8.287-6.73-7.942-13,.25-4.518-.176-9.073.1-13.584.639-10.542-2.167-20.673-3.431-30.988-.206-1.7-.147-3.424-.353-5.143-.375-3.056-1.557-3.379-4.408-2.138a111.492,111.492,0,0,1-12.548,4.518c-.874.264-2.2-.9-3.277-1.411a14.042,14.042,0,0,1,2.336-2.718c2.939-2.057,6.215-3.739,9.088-5.921,3.019-2.292,2.564-4.908-.867-6.289-5.025-2.013-10.212-3.673-15.09-5.988a28.511,28.511,0,0,1-8.875-6.076c-2.88-3.159-4.812-7.192-7.17-10.836-2.483-3.82-5.025-7.6-7.449-11.446C263.524,12.3,259.491,5.651,255.355-.9a50.956,50.956,0,0,0-3.24-4.408c-4.092-5.194-8.258-10.329-12.306-15.56-3.761-4.863-7.692-9.631-11.02-14.789a176.791,176.791,0,0,1-8.9-16.163,104.1,104.1,0,0,1-5.3-12.313c-1.712-4.886-2.99-9.925-4.408-14.914-.815-2.887-1.675-5.782-2.2-8.72-1.55-8.184-2.549-16.53-4.107-24.633-3.291-17.1-.735-34.11-1.616-51.118,3.034-5.7,1.469-11.975,2.292-17.94.955-6.678,2.2-13.334,3.739-19.9,1.22-5.231,3.019-10.322,4.621-15.428,2.336-7.479,4.584-14.987,7.148-22.385.984-2.821,2.858-5.334,4.136-8.081,1.866-4.011,3.3-8.25,5.4-12.137,3.879-7.17,7.9-14.289,12.262-21.173,3.673-5.738,7.824-11.13,11.835-16.618,3.548-4.849,6.957-9.822,10.858-14.385,4.467-5.223,9.22-10.241,14.194-15,4.68-4.481,9.808-8.485,14.693-12.724,3.835-3.313,7.464-6.884,11.5-9.925a195.627,195.627,0,0,1,16.376-11.233c8.948-5.407,18-10.667,27.263-15.5,5.3-2.77,11.1-4.621,16.706-6.8,4.812-1.873,9.551-3.923,14.517-5.363,8.742-2.549,17.191-6.112,26.551-6.568,4.577-.228,9.066-2.2,13.584-3.365a11.8,11.8,0,0,1,2.468-.654c17.081-.536,34.162-1.19,51.243-1.469a105.852,105.852,0,0,1,17.823,1.425c5.032.793,9.9,2.615,14.892,3.791,2.939.691,6.017.8,8.948,1.528,6.142,1.521,12.335,2.939,18.308,5.01,6.208,2.131,12.166,4.966,18.264,7.42,3.578,1.469,7.442,2.329,10.785,4.166,10.454,5.73,21.739,9.925,31.054,17.794,4.077,3.438,9.323,5.466,13.907,8.346,1.594,1.006,2.689,2.784,4.195,3.975,5.98,4.717,12.342,8.992,17.985,14.069,7.347,6.612,14.15,13.8,21.122,20.806a68.5,68.5,0,0,1,7.582,8.3c4.577,6.465,9.235,12.937,12.989,19.88a93.492,93.492,0,0,1,6.854,17.727,45.768,45.768,0,0,1,1.822,12.967c0,7.163-.948,14.319-1.109,21.489a45.848,45.848,0,0,1-4.695,18.367c-2.821,6.083-5.312,12.489-9.264,17.83-4.408,5.877-8.75,11.9-15.1,16.493-5.047,3.673-10.146,7.244-15.391,10.616a22.612,22.612,0,0,1-4.959,2.263c-3.167,1.073-6.4,1.932-9.6,2.939-4.2,1.286-8.375,2.667-12.607,3.872a15.428,15.428,0,0,1-4.011.331c-3.673.051-7.347-.088-11.02.073-7.347.316-14.319-1.381-21.114-4.114-3.21-1.286-6.869-1.616-9.845-3.262-6.84-3.776-13.532-7.861-20-12.24-8.4-5.672-14.392-13.731-19.256-22.378a92.4,92.4,0,0,1-9.859-24.743c-2.652-11.527-2.2-22.958-1.168-34.14.793-8.816,3.086-18.109,8.911-25.831,3.82-5.062,6.134-11.336,10.285-16.067,6.729-7.707,14.289-14.693,23.7-19.292a143.013,143.013,0,0,1,24.325-8.816c7.611-2.131,14.987-1.837,22.393-1.55,6.105.235,12.137,2.424,18.2,3.725.793.169,1.609.235,3.166.463a19.572,19.572,0,0,0-2.527-3.071c-6.274-4.761-12.364-9.793-18.976-14.083-9.551-6.3-19.336-12.445-29.387-17.963-7.119-3.894-14.884-6.612-22.348-9.889-4.166-1.822-8.258-3.828-12.489-5.481-2.2-.867-4.695-1.073-7.016-1.712a308.709,308.709,0,0,0-31.422-7.112c-6.656-1.095-13.54-.2-19.733-2.094-9.47-2.939-18.969-2.145-28.277-1.469-9.889.683-19.976.992-29.7,3.717-3.247.9-6.7,1.051-10.05,1.616-4.731.8-9.551,1.366-14.15,2.571-5.143,1.337-10.1,3.2-15.09,4.974-5.672,2.02-11.4,3.96-16.9,6.377-7.927,3.482-15.744,7.236-23.509,11.138a128.954,128.954,0,0,0-14.965,8.537c-7.743,5.319-15.23,11.02-22.708,16.743-4,3.064-7.751,6.472-11.63,9.7-3.056,2.549-6.384,4.827-9.139,7.655a44.739,44.739,0,0,0-5.943,8.2c-3.776,6.281-7.523,12.622-8.911,19.968a23.447,23.447,0,0,0-.5,5.444c.411,8.375.375,16.846,1.668,25.1.83,5.3,3.673,10.285,5.657,15.391,1.308,3.35,2.38,6.854,4.144,9.955,4.166,7.3,8.191,14.781,13.224,21.489,4.8,6.443,10.755,12.034,16.273,17.933,3.548,3.8,6.9,7.876,10.917,11.108,6.568,5.282,13.562,10.05,20.46,14.914,6.362,4.474,12.71,9.007,19.314,13.106,4.886,3.027,10.19,5.392,15.288,8.081,1.815.962,3.578,2.013,5.37,3.019,6,3.372,12.056,6.656,18,10.124,5.7,3.328,11.218,6.979,16.949,10.241,4.29,2.432,8.86,4.357,13.224,6.715,6.825,3.717,13.65,7.611,20.46,11.483s13.657,8.037,20.571,11.924c4.305,2.417,8.816,4.511,13.151,6.84,7.854,4.2,15.656,8.493,23.509,12.717,6.788,3.673,13.65,7.178,20.38,10.924,6.5,3.629,12.871,7.494,19.322,11.226,7.494,4.342,15.075,8.574,22.547,13.026,7.787,4.614,15.494,9.374,23.2,14.113,8.3,5.143,16.625,10.175,24.817,15.428C619-5.9,622.518-3.092,626.081-.381c7.986,6.068,16.265,11.813,23.81,18.367,10.116,8.816,19.784,18.176,29.387,27.587a169.5,169.5,0,0,1,13.437,15.2c2.895,3.615,5.143,7.758,7.7,11.637,3.578,5.4,7.6,10.55,10.675,16.214,3.409,6.289,6.054,13.011,8.867,19.608,2.1,4.915,4.011,9.918,5.877,14.928a41.916,41.916,0,0,1,1.271,5.282c1.087,4.672,1.763,9.492,3.357,13.959,2.505,7.075,2.939,14.392,3.739,21.717.448,4.18.735,8.507,2.138,12.416,2.939,8.353.455,17.213,2.446,25.287,2.41,9.786,1.793,19.424,1.557,29.078-.25,10.285-2.131,20.438-2.388,30.782-.154,6.259-2.593,12.445-3.74,18.712-.8,4.408-.889,8.948-1.763,13.341-.9,4.555-2.38,8.992-3.6,13.481-.257.933-.507,1.859-.735,2.8-1.352,5.6-2.505,11.255-4.114,16.78-1.006,3.446-2.77,6.663-4.063,10.035-2.468,6.414-4.614,12.967-7.347,19.278-2.072,4.812-4.775,9.36-7.251,13.959-3.879,7.273-7.751,14.546-11.755,21.761q-2.865,5.143-6.156,10.116a147.427,147.427,0,0,1-9.345,13.268c-6.024,7.2-12.489,14.054-18.7,21.092-2.549,2.88-4.731,6.134-7.508,8.757-6.325,5.973-12.732,11.887-19.454,17.4-5.032,4.114-10.586,7.589-15.95,11.292-4.357,3.019-8.632,6.193-13.224,8.86-6.708,3.9-13.606,7.5-20.512,11.064-5.877,3.027-11.8,6-17.86,8.64-4.628,2.013-9.551,3.416-14.282,5.143-3.24,1.183-6.414,2.542-9.675,3.673a45.374,45.374,0,0,1-5.628,1.418c-5.069,1.058-10.182,1.94-15.222,3.137-3.938.933-7.787,2.2-11.674,3.365a13.482,13.482,0,0,1-2.777.83c-9.36.58-18.881.22-28.049,1.829-13.6,2.4-27.183,2.263-40.781,1.793-9.492-.338-18.94-2.109-28.4-3.233a15.244,15.244,0,0,0-1.815-.213c-7.06,0-13.657-2.2-20.343-4.092-5.532-1.594-11.233-2.608-16.831-4.011a64.532,64.532,0,0,1-8.6-2.7c-8.353-3.409-16.449-7.56-24.979-10.359-10.506-3.446-19.05-10.337-28.8-15.068-5-2.432-9.279-6.377-13.826-9.72-8.081-5.936-16.368-11.571-23.994-18.021-6.12-5.179-11.5-11.277-16.978-17.184-4.173-4.511-7.986-9.352-11.946-14.054-2.939-3.5-6.076-6.884-8.816-10.564-4.246-5.745-8.529-11.5-12.217-17.632-4.283-7.1-8.133-14.5-11.821-21.944-3.828-7.721-7.472-15.56-10.748-23.509-1.859-4.518-2.711-9.44-4.224-14.12-1.058-3.284-2.549-6.421-3.673-9.69a65.864,65.864,0,0,1-2.7-9.3c-.8-4.3-.926-8.728-1.734-13.026-1.146-6.09-2.645-12.122-3.982-18.183a7.008,7.008,0,0,1-.235-1.469c-.47-16.354-1.087-32.707-1.293-49.068a113.712,113.712,0,0,1,1.389-18.205c.815-5.414,2.586-10.682,3.747-16.06.735-3.556.838-7.3,1.888-10.755,1.771-5.819,4.107-11.468,6.134-17.213.683-1.94.911-4.063,1.778-5.877q4.5-9.551,9.323-18.888c1.543-3.012,3.424-5.877,5.143-8.816,1.4-2.439,3-4.188,6.267-4.077,3.115.11,3.864,2.2,5.216,4.29,3.615,5.65,3.159,11.821,2.726,17.963-.147,2.057-1.469,4.011-2.064,6.061q-2.755,9.551-5.341,19.1c-.588,2.2-.918,4.511-1.308,6.781-.97,5.679-2.072,11.336-2.828,17.037-1.33,9.977-2.865,19.924-2.4,30.121.411,8.816-.316,17.632.323,26.448.419,5.789,2.388,11.461,3.673,17.191.624,2.843,1.021,5.752,1.829,8.544,2.63,9.117,5.216,18.264,11.233,25.934.948,1.212,1.264,2.939,2.2,4.136,2.094,2.7,4.819,4.408,8.419,4.136l1.036,1.374.389-.47Z" transform="translate(980.396 658.33)" fill="#fff"/>
    <path id="Контур_314" data-name="Контур 314" d="M226.471,440.772c0-5.525-.279-9.83.066-14.084.588-7.347,1.352-14.642,2.439-21.908a170.825,170.825,0,0,1,3.541-16.9,82.369,82.369,0,0,1,3.431-9.022c1.469-3.776,2.468-7.817,4.467-11.284,3.262-5.664,4.753-12.276,9.69-17.088,3.144-3.064,5.642-6.8,8.383-10.285,1.631-2.057,3.622-1.469,4.584.125a33.753,33.753,0,0,1,4.364,9.7,27.813,27.813,0,0,1,.044,10.227,35.36,35.36,0,0,1-3.262,10.9c-2.41,4.562-5.877,8.544-8.581,12.967a72.656,72.656,0,0,0-4.136,8.816c-2.806,6.348-5.877,12.607-8.25,19.1s-3.673,13.4-5.98,19.917c-5.187,14.576-4.107,29.658-4.188,44.66,0,1.19.382,2.388.485,3.585a18.9,18.9,0,0,1-.066,2.41c-.735-.514-1.866-.889-2.116-1.58-1.014-2.806-1.763-5.708-2.579-8.581C225.722,461.658,226.56,450.55,226.471,440.772Z" transform="translate(967.786 462.232)" fill="#fff"/>
    <path id="Контур_315" data-name="Контур 315" d="M373.912,580.949c-3.122-6.032-4.158-11.409-1.469-17.345,1.785-3.894,2.3-8.375,4.136-12.232,3.188-6.693,8.765-10.822,15.964-12.644,2.939-.735,5.936-2.2,8.742-1.866,4.188.478,8.221,2.2,12.32,3.46.573.169,1.109.478,1.69.646,5.459,1.557,10.836,7.347,13.518,12.489,3.24,6.149,2.6,12.592,1.616,18.58-1.1,6.729-5.642,11.857-12.012,15.428-5.672,3.2-11.483,2.2-17.088,1.638-4.349-.419-7.942-3.6-10.667-7.494-2.843-4.07-2.865-8.529-2.2-12.908.338-2.255,2.1-4.533,3.769-6.274a13.694,13.694,0,0,1,5.4-2.939c.874-.316,2.1.36,3.174.6-.507.86-.808,2.057-1.565,2.527-2.6,1.609-4.533,3.379-4.533,6.825,0,6,7.912,12.622,13.738,11.079a11.8,11.8,0,0,0,4.724-2.505c3.974-3.534,7.4-7.7,7.3-13.275-.081-4.555-2.939-8.25-6.325-11.02-13.062-10.594-27.028-6.524-34.529,9.205-2.417,5.062-3.225,10.888-4.79,16.361A10.606,10.606,0,0,1,373.912,580.949Z" transform="translate(929.437 409.714)" fill="#fff"/>
    <path id="Контур_316" data-name="Контур 316" d="M501.54,671.607,497,670.321c.735-1.293,1.146-2.873,2.2-3.828,5.951-5.605,9.551-12.129,8.471-20.571a16.346,16.346,0,0,0-7.589-12.379c-.94-.61-1.418-1.925-2.109-2.939,1.058-.646,2.277-2.02,3.144-1.822a51.127,51.127,0,0,1,9.4,3.093c4.878,2.2,6.068,6.649,7.8,11.417,4.011,11.02-1.668,18.367-8.294,25.317C508.13,670.615,504.266,670.718,501.54,671.607Z" transform="translate(895.977 385.316)" fill="#fff"/>
    <path id="Контур_317" data-name="Контур 317" d="M526.288,535.572c.646,5.877-2.035,10.873-6.553,14.443-2.6,2.057-6.311,2.873-9.653,3.725-.97.25-2.535-1.161-3.512-2.123-.206-.2.735-2.094,1.535-2.711,7.3-5.62,6.3-13.466,5.51-21.085-.184-1.726-2.38-3.188-3.468-4.893a31.985,31.985,0,0,1-1.844-3.967,13.841,13.841,0,0,1,3.468-1.352c5.275-.507,14.341,5.635,14.517,14.414C526.31,533.118,526.288,534.22,526.288,535.572Z" transform="translate(893.445 414.817)" fill="#fff"/>
    <path id="Контур_318" data-name="Контур 318" d="M549,603.005h-2.939c-2.035-.088-2.513-1.168-1.771-2.939a74.646,74.646,0,0,0,3.027-7.347,7.753,7.753,0,0,0-.367-4.026c-.478-1.9-3.673-4.2-1.1-5.481a10.418,10.418,0,0,1,8.463.353c4.114,2.285,5.26,8.742,3.372,13.386C555.406,602.609,554.775,603.05,549,603.005Z" transform="translate(883.517 397.598)" fill="#fff"/>
    <path id="Контур_319" data-name="Контур 319" d="M256.78,586.026l1.528.808-.389.47-1.036-1.374Z" transform="translate(959.716 396.682)"/>
  </g>
</svg>
